<svg width="264" height="34" viewBox="0 0 264 34" fill="none" xmlns="http://www.w3.org/2000/svg">
<path d="M26.1756 27.15C25.2156 27.15 24.2656 26.89 23.3256 26.37C22.3856 25.83 21.6356 24.79 21.0756 23.25L20.3256 21.3H11.9256L9.52563 27H8.17563L16.5756 7.2H17.4756L24.0756 23.25C24.5756 24.41 25.0456 25.21 25.4856 25.65C25.9256 26.07 26.5556 26.32 27.3756 26.4V27C27.0156 27.1 26.6156 27.15 26.1756 27.15ZM12.3756 20.1H19.7256L16.1256 11.4L12.3756 20.1ZM36.4222 8.4H33.7222C31.2222 8.4 29.9722 9.55 29.9722 11.85H29.3722V9.6C29.3722 8 30.2222 7.2 31.9222 7.2H45.8722V8.4H39.1222V27H36.4222V8.4ZM53.4124 10.8C53.4124 9.78 53.2724 9.03 52.9924 8.55C52.7124 8.05 52.1524 7.8 51.3124 7.8H50.7124V7.2H53.4124C54.1524 7.2 54.7024 7.3 55.0624 7.5C55.4424 7.68 55.7124 8.02 55.8724 8.52C56.0324 9.02 56.1124 9.78 56.1124 10.8V25.8H66.7624V27H53.4124V10.8ZM89.6209 27.15C88.6609 27.15 87.7109 26.89 86.7709 26.37C85.8309 25.83 85.0809 24.79 84.5209 23.25L83.7709 21.3H75.3709L72.9709 27H71.6209L80.0209 7.2H80.9209L87.5209 23.25C88.0209 24.41 88.4909 25.21 88.9309 25.65C89.3709 26.07 90.0009 26.32 90.8209 26.4V27C90.4609 27.1 90.0609 27.15 89.6209 27.15ZM75.8209 20.1H83.1709L79.5709 11.4L75.8209 20.1ZM102.464 27.51C101.364 27.51 100.284 27.36 99.2239 27.06C98.1639 26.76 97.2939 26.33 96.6139 25.77C95.9539 25.21 95.6239 24.57 95.6239 23.85V20.64H96.1639C96.5039 22.64 97.1639 24.09 98.1439 24.99C99.1239 25.87 100.474 26.31 102.194 26.31C103.274 26.31 104.194 26.04 104.954 25.5C105.734 24.96 106.124 24.21 106.124 23.25C106.124 22.41 105.864 21.68 105.344 21.06C104.824 20.44 103.984 19.79 102.824 19.11L99.1339 16.92C97.8539 16.16 96.9439 15.39 96.4039 14.61C95.8839 13.83 95.6239 12.88 95.6239 11.76C95.6239 10.22 96.1539 8.99 97.2139 8.07C98.2939 7.13 99.7039 6.66 101.444 6.66C102.464 6.66 103.474 6.81 104.474 7.11C105.474 7.39 106.294 7.81 106.934 8.37C107.594 8.91 107.924 9.54 107.924 10.26V13.47H107.384C107.044 11.47 106.394 10.04 105.434 9.18C104.494 8.3 103.164 7.86 101.444 7.86C100.524 7.86 99.7139 8.14 99.0139 8.7C98.3139 9.26 97.9639 9.99 97.9639 10.89C97.9639 11.71 98.2139 12.39 98.7139 12.93C99.2339 13.47 100.094 14.1 101.294 14.82L104.984 17.01C106.344 17.83 107.304 18.59 107.864 19.29C108.424 19.99 108.704 20.88 108.704 21.96C108.704 23.64 108.144 24.99 107.024 26.01C105.904 27.01 104.384 27.51 102.464 27.51Z" fill="#56342B"/>
<path d="M23.3256 26.37L23.2011 26.5868L23.2046 26.5888L23.3256 26.37ZM21.0756 23.25L21.3106 23.1645L21.309 23.1603L21.0756 23.25ZM20.3256 21.3L20.559 21.2103L20.4973 21.05H20.3256V21.3ZM11.9256 21.3V21.05H11.7596L11.6952 21.203L11.9256 21.3ZM9.52563 27V27.25H9.69162L9.75603 27.097L9.52563 27ZM8.17562 27L7.94548 26.9024L7.798 27.25H8.17562V27ZM16.5756 7.2V6.95H16.4101L16.3455 7.10236L16.5756 7.2ZM17.4756 7.2L17.7068 7.10492L17.6431 6.95H17.4756V7.2ZM24.0756 23.25L23.8444 23.3451L23.846 23.349L24.0756 23.25ZM25.4856 25.65L25.3088 25.8268L25.313 25.8308L25.4856 25.65ZM27.3756 26.4H27.6256V26.1732L27.3999 26.1512L27.3756 26.4ZM27.3756 27L27.4425 27.2409L27.6256 27.19V27H27.3756ZM12.3756 20.1L12.146 20.001L11.9956 20.35H12.3756V20.1ZM19.7256 20.1V20.35H20.0996L19.9566 20.0044L19.7256 20.1ZM16.1256 11.4L16.3566 11.3044L16.1303 10.7575L15.896 11.301L16.1256 11.4ZM26.1756 27.15V26.9C25.2628 26.9 24.3541 26.6532 23.4466 26.1512L23.3256 26.37L23.2046 26.5888C24.1772 27.1268 25.1684 27.4 26.1756 27.4V27.15ZM23.3256 26.37L23.4502 26.1532C22.5818 25.6544 21.8603 24.6764 21.3106 23.1646L21.0756 23.25L20.8407 23.3354C21.4109 24.9036 22.1894 26.0056 23.2011 26.5868L23.3256 26.37ZM21.0756 23.25L21.309 23.1603L20.559 21.2103L20.3256 21.3L20.0923 21.3897L20.8423 23.3397L21.0756 23.25ZM20.3256 21.3V21.05H11.9256V21.3V21.55H20.3256V21.3ZM11.9256 21.3L11.6952 21.203L9.29522 26.903L9.52563 27L9.75603 27.097L12.156 21.397L11.9256 21.3ZM9.52563 27V26.75H8.17562V27V27.25H9.52563V27ZM8.17562 27L8.40577 27.0976L16.8058 7.29764L16.5756 7.2L16.3455 7.10236L7.94548 26.9024L8.17562 27ZM16.5756 7.2V7.45H17.4756V7.2V6.95H16.5756V7.2ZM17.4756 7.2L17.2444 7.29508L23.8444 23.3451L24.0756 23.25L24.3068 23.1549L17.7068 7.10492L17.4756 7.2ZM24.0756 23.25L23.846 23.349C24.3484 24.5143 24.8335 25.3515 25.3088 25.8268L25.4856 25.65L25.6624 25.4732C25.2577 25.0685 24.8029 24.3057 24.3052 23.151L24.0756 23.25ZM25.4856 25.65L25.313 25.8308C25.8057 26.3011 26.4953 26.5653 27.3514 26.6488L27.3756 26.4L27.3999 26.1512C26.616 26.0747 26.0455 25.8389 25.6582 25.4692L25.4856 25.65ZM27.3756 26.4H27.1256V27H27.3756H27.6256V26.4H27.3756ZM27.3756 27L27.3087 26.7591C26.974 26.8521 26.5969 26.9 26.1756 26.9V27.15V27.4C26.6343 27.4 27.0573 27.3479 27.4425 27.2409L27.3756 27ZM12.3756 20.1V20.35H19.7256V20.1V19.85H12.3756V20.1ZM19.7256 20.1L19.9566 20.0044L16.3566 11.3044L16.1256 11.4L15.8946 11.4956L19.4946 20.1956L19.7256 20.1ZM16.1256 11.4L15.896 11.301L12.146 20.001L12.3756 20.1L12.6052 20.199L16.3552 11.499L16.1256 11.4ZM36.4222 8.4H36.6722V8.15H36.4222V8.4ZM29.9722 11.85V12.1H30.2222V11.85H29.9722ZM29.3722 11.85H29.1222V12.1H29.3722V11.85ZM45.8722 7.2H46.1222V6.95H45.8722V7.2ZM45.8722 8.4V8.65H46.1222V8.4H45.8722ZM39.1222 8.4V8.15H38.8722V8.4H39.1222ZM39.1222 27V27.25H39.3722V27H39.1222ZM36.4222 27H36.1722V27.25H36.4222V27ZM36.4222 8.4V8.15H33.7222V8.4V8.65H36.4222V8.4ZM33.7222 8.4V8.15C32.4386 8.15 31.4293 8.44479 30.7404 9.07852C30.0476 9.71587 29.7222 10.6559 29.7222 11.85H29.9722H30.2222C30.2222 10.7441 30.5217 9.95913 31.079 9.44648C31.6401 8.93021 32.5058 8.65 33.7222 8.65V8.4ZM29.9722 11.85V11.6H29.3722V11.85V12.1H29.9722V11.85ZM29.3722 11.85H29.6222V9.6H29.3722H29.1222V11.85H29.3722ZM29.3722 9.6H29.6222C29.6222 8.84254 29.8227 8.31934 30.181 7.98205C30.5422 7.64208 31.1071 7.45 31.9222 7.45V7.2V6.95C31.0373 6.95 30.3271 7.15792 29.8383 7.61795C29.3467 8.08066 29.1222 8.75746 29.1222 9.6H29.3722ZM31.9222 7.2V7.45H45.8722V7.2V6.95H31.9222V7.2ZM45.8722 7.2H45.6222V8.4H45.8722H46.1222V7.2H45.8722ZM45.8722 8.4V8.15H39.1222V8.4V8.65H45.8722V8.4ZM39.1222 8.4H38.8722V27H39.1222H39.3722V8.4H39.1222ZM39.1222 27V26.75H36.4222V27V27.25H39.1222V27ZM36.4222 27H36.6722V8.4H36.4222H36.1722V27H36.4222ZM52.9924 8.55L52.7743 8.67217L52.7765 8.67597L52.9924 8.55ZM50.7124 7.8H50.4624V8.05H50.7124V7.8ZM50.7124 7.2V6.95H50.4624V7.2H50.7124ZM55.0624 7.5L54.941 7.71854L54.9481 7.72247L54.9554 7.72593L55.0624 7.5ZM55.8724 8.52L56.1105 8.4438L55.8724 8.52ZM56.1124 25.8H55.8624V26.05H56.1124V25.8ZM66.7624 25.8H67.0124V25.55H66.7624V25.8ZM66.7624 27V27.25H67.0124V27H66.7624ZM53.4124 27H53.1624V27.25H53.4124V27ZM53.4124 10.8H53.6624C53.6624 9.76719 53.5225 8.96247 53.2084 8.42403L52.9924 8.55L52.7765 8.67597C53.0224 9.09753 53.1624 9.79281 53.1624 10.8H53.4124ZM52.9924 8.55L53.2105 8.42785C52.8675 7.81529 52.1964 7.55 51.3124 7.55V7.8V8.05C52.1085 8.05 52.5573 8.28471 52.7743 8.67215L52.9924 8.55ZM51.3124 7.8V7.55H50.7124V7.8V8.05H51.3124V7.8ZM50.7124 7.8H50.9624V7.2H50.7124H50.4624V7.8H50.7124ZM50.7124 7.2V7.45H53.4124V7.2V6.95H50.7124V7.2ZM53.4124 7.2V7.45C54.1389 7.45 54.6372 7.54973 54.941 7.71854L55.0624 7.5L55.1838 7.28146C54.7677 7.05027 54.1659 6.95 53.4124 6.95V7.2ZM55.0624 7.5L54.9554 7.72593C55.258 7.86927 55.4898 8.1446 55.6343 8.59619L55.8724 8.52L56.1105 8.4438C55.935 7.89539 55.6268 7.49073 55.1694 7.27406L55.0624 7.5ZM55.8724 8.52L55.6343 8.59619C55.7821 9.05808 55.8624 9.78631 55.8624 10.8H56.1124H56.3624C56.3624 9.77369 56.2827 8.98192 56.1105 8.4438L55.8724 8.52ZM56.1124 10.8H55.8624V25.8H56.1124H56.3624V10.8H56.1124ZM56.1124 25.8V26.05H66.7624V25.8V25.55H56.1124V25.8ZM66.7624 25.8H66.5124V27H66.7624H67.0124V25.8H66.7624ZM66.7624 27V26.75H53.4124V27V27.25H66.7624V27ZM53.4124 27H53.6624V10.8H53.4124H53.1624V27H53.4124ZM86.7709 26.37L86.6464 26.5868L86.6499 26.5888L86.7709 26.37ZM84.5209 23.25L84.7559 23.1645L84.7543 23.1603L84.5209 23.25ZM83.7709 21.3L84.0043 21.2103L83.9426 21.05H83.7709V21.3ZM75.3709 21.3V21.05H75.2049L75.1405 21.203L75.3709 21.3ZM72.9709 27V27.25H73.1369L73.2013 27.097L72.9709 27ZM71.6209 27L71.3908 26.9024L71.2433 27.25H71.6209V27ZM80.0209 7.2V6.95H79.8554L79.7908 7.10236L80.0209 7.2ZM80.9209 7.2L81.1522 7.10492L81.0884 6.95H80.9209V7.2ZM87.5209 23.25L87.2897 23.3451L87.2914 23.349L87.5209 23.25ZM88.9309 25.65L88.7541 25.8268L88.7583 25.8308L88.9309 25.65ZM90.8209 26.4H91.0709V26.1732L90.8452 26.1512L90.8209 26.4ZM90.8209 27L90.8878 27.2409L91.0709 27.19V27H90.8209ZM75.8209 20.1L75.5914 20.001L75.4409 20.35H75.8209V20.1ZM83.1709 20.1V20.35H83.5449L83.4019 20.0044L83.1709 20.1ZM79.5709 11.4L79.8019 11.3044L79.5756 10.7575L79.3414 11.301L79.5709 11.4ZM89.6209 27.15V26.9C88.7081 26.9 87.7994 26.6532 86.892 26.1512L86.7709 26.37L86.6499 26.5888C87.6225 27.1268 88.6138 27.4 89.6209 27.4V27.15ZM86.7709 26.37L86.8955 26.1532C86.0271 25.6544 85.3056 24.6764 84.7559 23.1646L84.5209 23.25L84.286 23.3354C84.8562 24.9036 85.6347 26.0056 86.6464 26.5868L86.7709 26.37ZM84.5209 23.25L84.7543 23.1603L84.0043 21.2103L83.7709 21.3L83.5376 21.3897L84.2876 23.3397L84.5209 23.25ZM83.7709 21.3V21.05H75.3709V21.3V21.55H83.7709V21.3ZM75.3709 21.3L75.1405 21.203L72.7405 26.903L72.9709 27L73.2013 27.097L75.6013 21.397L75.3709 21.3ZM72.9709 27V26.75H71.6209V27V27.25H72.9709V27ZM71.6209 27L71.8511 27.0976L80.2511 7.29764L80.0209 7.2L79.7908 7.10236L71.3908 26.9024L71.6209 27ZM80.0209 7.2V7.45H80.9209V7.2V6.95H80.0209V7.2ZM80.9209 7.2L80.6897 7.29508L87.2897 23.3451L87.5209 23.25L87.7522 23.1549L81.1522 7.10492L80.9209 7.2ZM87.5209 23.25L87.2914 23.349C87.7937 24.5143 88.2789 25.3515 88.7542 25.8268L88.9309 25.65L89.1077 25.4732C88.703 25.0685 88.2482 24.3057 87.7505 23.151L87.5209 23.25ZM88.9309 25.65L88.7583 25.8308C89.251 26.3011 89.9406 26.5653 90.7967 26.6488L90.8209 26.4L90.8452 26.1512C90.0613 26.0747 89.4909 25.8389 89.1036 25.4692L88.9309 25.65ZM90.8209 26.4H90.5709V27H90.8209H91.0709V26.4H90.8209ZM90.8209 27L90.754 26.7591C90.4193 26.8521 90.0422 26.9 89.6209 26.9V27.15V27.4C90.0797 27.4 90.5026 27.3479 90.8878 27.2409L90.8209 27ZM75.8209 20.1V20.35H83.1709V20.1V19.85H75.8209V20.1ZM83.1709 20.1L83.4019 20.0044L79.8019 11.3044L79.5709 11.4L79.3399 11.4956L82.9399 20.1956L83.1709 20.1ZM79.5709 11.4L79.3414 11.301L75.5914 20.001L75.8209 20.1L76.0505 20.199L79.8005 11.499L79.5709 11.4ZM99.2239 27.06L99.292 26.8194L99.2239 27.06ZM96.6139 25.77L96.4521 25.9606L96.455 25.963L96.6139 25.77ZM95.6239 20.64V20.39H95.3739V20.64H95.6239ZM96.1639 20.64L96.4104 20.5981L96.375 20.39H96.1639V20.64ZM98.1439 24.99L97.9748 25.1741L97.9769 25.176L98.1439 24.99ZM104.954 25.5L104.812 25.2944L104.809 25.2962L104.954 25.5ZM102.824 19.11L102.696 19.325L102.697 19.3257L102.824 19.11ZM99.1339 16.92L99.0063 17.135L99.0063 17.135L99.1339 16.92ZM96.4039 14.61L96.1959 14.7487L96.1984 14.7523L96.4039 14.61ZM97.2139 8.07L97.3778 8.2588L97.378 8.25857L97.2139 8.07ZM104.474 7.11L104.402 7.3495L104.407 7.35074L104.474 7.11ZM106.934 8.37L106.769 8.55825L106.776 8.56349L106.934 8.37ZM107.924 13.47V13.72H108.174V13.47H107.924ZM107.384 13.47L107.137 13.5119L107.173 13.72H107.384V13.47ZM105.434 9.18L105.263 9.36255L105.267 9.36621L105.434 9.18ZM99.0139 8.7L99.1701 8.89522L99.0139 8.7ZM98.7139 12.93L98.5304 13.0999L98.5338 13.1034L98.7139 12.93ZM101.294 14.82L101.165 15.0344L101.166 15.035L101.294 14.82ZM104.984 17.01L105.113 16.7959L105.112 16.795L104.984 17.01ZM107.864 19.29L107.669 19.4462L107.864 19.29ZM107.024 26.01L107.19 26.1965L107.192 26.1948L107.024 26.01ZM102.464 27.51V27.26C101.387 27.26 100.33 27.1132 99.292 26.8194L99.2239 27.06L99.1558 27.3006C100.238 27.6068 101.341 27.76 102.464 27.76V27.51ZM99.2239 27.06L99.292 26.8194C98.2572 26.5266 97.4204 26.1103 96.7728 25.577L96.6139 25.77L96.455 25.963C97.1674 26.5497 98.0706 26.9934 99.1558 27.3006L99.2239 27.06ZM96.6139 25.77L96.7757 25.5794C96.1592 25.0563 95.8739 24.4817 95.8739 23.85H95.6239H95.3739C95.3739 24.6583 95.7486 25.3637 96.4522 25.9606L96.6139 25.77ZM95.6239 23.85H95.8739V20.64H95.6239H95.3739V23.85H95.6239ZM95.6239 20.64V20.89H96.1639V20.64V20.39H95.6239V20.64ZM96.1639 20.64L95.9174 20.6819C96.2621 22.7094 96.9375 24.2215 97.9748 25.1741L98.1439 24.99L98.313 24.8059C97.3904 23.9585 96.7457 22.5706 96.4104 20.5981L96.1639 20.64ZM98.1439 24.99L97.9769 25.176C99.0153 26.1085 100.432 26.56 102.194 26.56V26.31V26.06C100.516 26.06 99.2325 25.6315 98.3109 24.804L98.1439 24.99ZM102.194 26.31V26.56C103.317 26.56 104.29 26.2784 105.099 25.7038L104.954 25.5L104.809 25.2962C104.098 25.8016 103.231 26.06 102.194 26.06V26.31ZM104.954 25.5L105.096 25.7055C105.945 25.1182 106.374 24.2909 106.374 23.25H106.124H105.874C105.874 24.1291 105.523 24.8018 104.812 25.2945L104.954 25.5ZM106.124 23.25H106.374C106.374 22.3537 106.095 21.5662 105.535 20.8993L105.344 21.06L105.152 21.2207C105.633 21.7938 105.874 22.4663 105.874 23.25H106.124ZM105.344 21.06L105.535 20.8993C104.989 20.2477 104.121 19.5805 102.95 18.8943L102.824 19.11L102.697 19.3257C103.847 19.9995 104.659 20.6323 105.152 21.2207L105.344 21.06ZM102.824 19.11L102.951 18.895L99.2615 16.705L99.1339 16.92L99.0063 17.135L102.696 19.325L102.824 19.11ZM99.1339 16.92L99.2615 16.705C97.9967 15.954 97.1207 15.2061 96.6095 14.4677L96.4039 14.61L96.1984 14.7523C96.7671 15.5739 97.7111 16.366 99.0063 17.135L99.1339 16.92ZM96.4039 14.61L96.6119 14.4713C96.1243 13.7398 95.8739 12.8404 95.8739 11.76H95.6239H95.3739C95.3739 12.9196 95.6436 13.9202 96.1959 14.7487L96.4039 14.61ZM95.6239 11.76H95.8739C95.8739 10.2845 96.3782 9.12636 97.3778 8.2588L97.2139 8.07L97.05 7.88119C95.9296 8.85364 95.3739 10.1555 95.3739 11.76H95.6239ZM97.2139 8.07L97.378 8.25857C98.4033 7.36626 99.7507 6.91 101.444 6.91V6.66V6.41C99.6571 6.41 98.1846 6.89374 97.0498 7.88142L97.2139 8.07ZM101.444 6.66V6.91C102.439 6.91 103.425 7.05628 104.402 7.34946L104.474 7.11L104.546 6.87054C103.523 6.56372 102.489 6.41 101.444 6.41V6.66ZM104.474 7.11L104.407 7.35074C105.378 7.62286 106.163 8.02753 106.769 8.55814L106.934 8.37L107.099 8.18185C106.425 7.59246 105.569 7.15713 104.541 6.86926L104.474 7.11ZM106.934 8.37L106.776 8.56349C107.389 9.06574 107.674 9.6291 107.674 10.26H107.924H108.174C108.174 9.45089 107.798 8.75426 107.092 8.17651L106.934 8.37ZM107.924 10.26H107.674V13.47H107.924H108.174V10.26H107.924ZM107.924 13.47V13.22H107.384V13.47V13.72H107.924V13.47ZM107.384 13.47L107.63 13.4281C107.286 11.4024 106.621 9.90776 105.601 8.99379L105.434 9.18L105.267 9.36621C106.167 10.1722 106.802 11.5376 107.137 13.5119L107.384 13.47ZM105.434 9.18L105.605 8.99749C104.605 8.06124 103.206 7.61 101.444 7.61V7.86V8.11C103.122 8.11 104.383 8.53876 105.263 9.3625L105.434 9.18ZM101.444 7.86V7.61C100.469 7.61 99.6033 7.90832 98.8577 8.50478L99.0139 8.7L99.1701 8.89522C99.8245 8.37168 100.579 8.11 101.444 8.11V7.86ZM99.0139 8.7L98.8577 8.50478C98.0982 9.11244 97.7139 9.91441 97.7139 10.89H97.9639H98.2139C98.2139 10.0656 98.5297 9.40755 99.1701 8.89522L99.0139 8.7ZM97.9639 10.89H97.7139C97.7139 11.7652 97.9827 12.5082 98.5305 13.0999L98.7139 12.93L98.8973 12.7601C98.4451 12.2718 98.2139 11.6548 98.2139 10.89H97.9639ZM98.7139 12.93L98.5338 13.1034C99.077 13.6675 99.9597 14.311 101.165 15.0344L101.294 14.82L101.423 14.6056C100.228 13.889 99.3908 13.2725 98.894 12.7566L98.7139 12.93ZM101.294 14.82L101.166 15.035L104.856 17.225L104.984 17.01L105.112 16.795L101.422 14.605L101.294 14.82ZM104.984 17.01L104.855 17.2241C106.206 18.0387 107.136 18.7805 107.669 19.4462L107.864 19.29L108.059 19.1338C107.472 18.3995 106.482 17.6213 105.113 16.7959L104.984 17.01ZM107.864 19.29L107.669 19.4462C108.186 20.0933 108.454 20.9247 108.454 21.96H108.704H108.954C108.954 20.8353 108.661 19.8867 108.059 19.1338L107.864 19.29ZM108.704 21.96H108.454C108.454 23.5782 107.918 24.858 106.856 25.8252L107.024 26.01L107.192 26.1948C108.37 25.122 108.954 23.7018 108.954 21.96H108.704ZM107.024 26.01L106.857 25.8235C105.795 26.7722 104.34 27.26 102.464 27.26V27.51V27.76C104.428 27.76 106.013 27.2478 107.19 26.1965L107.024 26.01Z" fill="white"/>
<path d="M131.974 12.6L134.347 17.9978L134.345 18.0022L131.974 23.4L129.6 18.0022L131.974 12.6Z" fill="#56342B"/>
<path d="M162.46 27.51C161.36 27.51 160.28 27.36 159.22 27.06C158.16 26.76 157.29 26.33 156.61 25.77C155.95 25.21 155.62 24.57 155.62 23.85V20.64H156.16C156.5 22.64 157.16 24.09 158.14 24.99C159.12 25.87 160.47 26.31 162.19 26.31C163.27 26.31 164.19 26.04 164.95 25.5C165.73 24.96 166.12 24.21 166.12 23.25C166.12 22.41 165.86 21.68 165.34 21.06C164.82 20.44 163.98 19.79 162.82 19.11L159.13 16.92C157.85 16.16 156.94 15.39 156.4 14.61C155.88 13.83 155.62 12.88 155.62 11.76C155.62 10.22 156.15 8.99 157.21 8.07C158.29 7.13 159.7 6.66 161.44 6.66C162.46 6.66 163.47 6.81 164.47 7.11C165.47 7.39 166.29 7.81 166.93 8.37C167.59 8.91 167.92 9.54 167.92 10.26V13.47H167.38C167.04 11.47 166.39 10.04 165.43 9.18C164.49 8.3 163.16 7.86 161.44 7.86C160.52 7.86 159.71 8.14 159.01 8.7C158.31 9.26 157.96 9.99 157.96 10.89C157.96 11.71 158.21 12.39 158.71 12.93C159.23 13.47 160.09 14.1 161.29 14.82L164.98 17.01C166.34 17.83 167.3 18.59 167.86 19.29C168.42 19.99 168.7 20.88 168.7 21.96C168.7 23.64 168.14 24.99 167.02 26.01C165.9 27.01 164.38 27.51 162.46 27.51ZM181.676 8.4H178.976C176.476 8.4 175.226 9.55 175.226 11.85H174.626V9.6C174.626 8 175.476 7.2 177.176 7.2H191.126V8.4H184.376V27H181.676V8.4ZM204.936 27.6C203.076 27.6 201.436 27.14 200.016 26.22C198.616 25.3 197.536 24.04 196.776 22.44C196.016 20.84 195.636 19.06 195.636 17.1C195.636 15.14 196.016 13.36 196.776 11.76C197.536 10.16 198.616 8.9 200.016 7.98C201.436 7.06 203.076 6.6 204.936 6.6C206.796 6.6 208.426 7.06 209.826 7.98C211.246 8.9 212.336 10.16 213.096 11.76C213.856 13.36 214.236 15.14 214.236 17.1C214.236 19.06 213.856 20.84 213.096 22.44C212.336 24.04 211.246 25.3 209.826 26.22C208.426 27.14 206.796 27.6 204.936 27.6ZM204.936 26.4C206.236 26.4 207.356 26.02 208.296 25.26C209.256 24.5 209.986 23.43 210.486 22.05C210.986 20.65 211.236 19 211.236 17.1C211.236 15.2 210.986 13.56 210.486 12.18C209.986 10.78 209.256 9.7 208.296 8.94C207.356 8.18 206.236 7.8 204.936 7.8C203.636 7.8 202.506 8.18 201.546 8.94C200.606 9.7 199.886 10.78 199.386 12.18C198.886 13.56 198.636 15.2 198.636 17.1C198.636 19 198.886 20.65 199.386 22.05C199.886 23.43 200.606 24.5 201.546 25.26C202.506 26.02 203.636 26.4 204.936 26.4ZM235.788 27.3C234.728 27.3 233.798 26.99 232.998 26.37C232.218 25.73 231.348 24.59 230.388 22.95L227.388 17.85H225.288V27H222.588V10.8C222.588 9.78 222.448 9.03 222.168 8.55C221.888 8.05 221.328 7.8 220.488 7.8H219.888V7.2H227.688C229.588 7.2 231.308 7.58 232.848 8.34C234.408 9.08 235.188 10.5 235.188 12.6C235.188 15.26 233.588 16.96 230.388 17.7L233.538 22.95C234.278 24.19 234.938 25.06 235.518 25.56C236.118 26.04 236.808 26.32 237.588 26.4V27C237.408 27.08 237.148 27.15 236.808 27.21C236.488 27.27 236.148 27.3 235.788 27.3ZM227.538 16.8C228.158 16.8 228.828 16.65 229.548 16.35C230.288 16.05 230.908 15.58 231.408 14.94C231.928 14.3 232.188 13.52 232.188 12.6C232.188 11.62 231.928 10.81 231.408 10.17C230.908 9.51 230.288 9.03 229.548 8.73C228.828 8.41 228.158 8.25 227.538 8.25C226.838 8.25 226.088 8.35 225.288 8.55V16.5C226.088 16.7 226.838 16.8 227.538 16.8ZM244.43 10.8C244.43 9.78 244.29 9.03 244.01 8.55C243.73 8.05 243.17 7.8 242.33 7.8H241.73V7.2H254.51C256.21 7.2 257.06 8 257.06 9.6V11.85H256.46C256.46 9.55 255.21 8.4 252.71 8.4H247.13V16.2H255.23V17.4H247.13V25.8H252.38C253.76 25.8 254.84 25.55 255.62 25.05C256.4 24.55 257.02 23.7 257.48 22.5L258.08 22.65L257.03 25.5C256.67 26.5 255.92 27 254.78 27H244.43V10.8Z" fill="#56342B"/>
<path d="M159.22 27.06L159.288 26.8194L159.22 27.06ZM156.61 25.77L156.448 25.9606L156.451 25.963L156.61 25.77ZM155.62 20.64V20.39H155.37V20.64H155.62ZM156.16 20.64L156.406 20.5981L156.371 20.39H156.16V20.64ZM158.14 24.99L157.971 25.1741L157.973 25.176L158.14 24.99ZM164.95 25.5L164.808 25.2944L164.805 25.2962L164.95 25.5ZM162.82 19.11L162.692 19.325L162.694 19.3257L162.82 19.11ZM159.13 16.92L159.002 17.135L159.002 17.135L159.13 16.92ZM156.4 14.61L156.192 14.7487L156.194 14.7523L156.4 14.61ZM157.21 8.07L157.374 8.2588L157.374 8.25857L157.21 8.07ZM164.47 7.11L164.398 7.3495L164.403 7.35074L164.47 7.11ZM166.93 8.37L166.765 8.55825L166.772 8.56349L166.93 8.37ZM167.92 13.47V13.72H168.17V13.47H167.92ZM167.38 13.47L167.134 13.5119L167.169 13.72H167.38V13.47ZM165.43 9.18L165.259 9.36255L165.263 9.36621L165.43 9.18ZM159.01 8.7L159.166 8.89522L159.01 8.7ZM158.71 12.93L158.527 13.0999L158.53 13.1034L158.71 12.93ZM161.29 14.82L161.161 15.0344L161.162 15.035L161.29 14.82ZM164.98 17.01L165.109 16.7959L165.108 16.795L164.98 17.01ZM167.86 19.29L167.665 19.4462L167.86 19.29ZM167.02 26.01L167.187 26.1965L167.188 26.1948L167.02 26.01ZM162.46 27.51V27.26C161.383 27.26 160.326 27.1132 159.288 26.8194L159.22 27.06L159.152 27.3006C160.234 27.6068 161.337 27.76 162.46 27.76V27.51ZM159.22 27.06L159.288 26.8194C158.253 26.5266 157.416 26.1103 156.769 25.577L156.61 25.77L156.451 25.963C157.164 26.5497 158.067 26.9934 159.152 27.3006L159.22 27.06ZM156.61 25.77L156.772 25.5794C156.155 25.0563 155.87 24.4817 155.87 23.85H155.62H155.37C155.37 24.6583 155.745 25.3637 156.448 25.9606L156.61 25.77ZM155.62 23.85H155.87V20.64H155.62H155.37V23.85H155.62ZM155.62 20.64V20.89H156.16V20.64V20.39H155.62V20.64ZM156.16 20.64L155.914 20.6819C156.258 22.7094 156.934 24.2215 157.971 25.1741L158.14 24.99L158.309 24.8059C157.386 23.9585 156.742 22.5706 156.406 20.5981L156.16 20.64ZM158.14 24.99L157.973 25.176C159.011 26.1085 160.428 26.56 162.19 26.56V26.31V26.06C160.512 26.06 159.229 25.6315 158.307 24.804L158.14 24.99ZM162.19 26.31V26.56C163.313 26.56 164.286 26.2784 165.095 25.7038L164.95 25.5L164.805 25.2962C164.094 25.8016 163.227 26.06 162.19 26.06V26.31ZM164.95 25.5L165.092 25.7055C165.941 25.1182 166.37 24.2909 166.37 23.25H166.12H165.87C165.87 24.1291 165.519 24.8018 164.808 25.2945L164.95 25.5ZM166.12 23.25H166.37C166.37 22.3537 166.091 21.5662 165.532 20.8993L165.34 21.06L165.148 21.2207C165.629 21.7938 165.87 22.4663 165.87 23.25H166.12ZM165.34 21.06L165.532 20.8993C164.985 20.2477 164.117 19.5805 162.946 18.8943L162.82 19.11L162.694 19.3257C163.843 19.9995 164.655 20.6323 165.148 21.2207L165.34 21.06ZM162.82 19.11L162.948 18.895L159.258 16.705L159.13 16.92L159.002 17.135L162.692 19.325L162.82 19.11ZM159.13 16.92L159.258 16.705C157.993 15.954 157.117 15.2061 156.606 14.4677L156.4 14.61L156.194 14.7523C156.763 15.5739 157.707 16.366 159.002 17.135L159.13 16.92ZM156.4 14.61L156.608 14.4713C156.12 13.7398 155.87 12.8404 155.87 11.76H155.62H155.37C155.37 12.9196 155.64 13.9202 156.192 14.7487L156.4 14.61ZM155.62 11.76H155.87C155.87 10.2845 156.374 9.12636 157.374 8.2588L157.21 8.07L157.046 7.88119C155.926 8.85364 155.37 10.1555 155.37 11.76H155.62ZM157.21 8.07L157.374 8.25857C158.399 7.36626 159.747 6.91 161.44 6.91V6.66V6.41C159.653 6.41 158.181 6.89374 157.046 7.88142L157.21 8.07ZM161.44 6.66V6.91C162.435 6.91 163.421 7.05628 164.398 7.34946L164.47 7.11L164.542 6.87054C163.519 6.56372 162.485 6.41 161.44 6.41V6.66ZM164.47 7.11L164.403 7.35074C165.374 7.62286 166.159 8.02753 166.765 8.55814L166.93 8.37L167.095 8.18185C166.421 7.59246 165.566 7.15713 164.537 6.86926L164.47 7.11ZM166.93 8.37L166.772 8.56349C167.386 9.06574 167.67 9.6291 167.67 10.26H167.92H168.17C168.17 9.45089 167.794 8.75426 167.088 8.17651L166.93 8.37ZM167.92 10.26H167.67V13.47H167.92H168.17V10.26H167.92ZM167.92 13.47V13.22H167.38V13.47V13.72H167.92V13.47ZM167.38 13.47L167.626 13.4281C167.282 11.4024 166.617 9.90776 165.597 8.99379L165.43 9.18L165.263 9.36621C166.163 10.1722 166.798 11.5376 167.134 13.5119L167.38 13.47ZM165.43 9.18L165.601 8.99749C164.601 8.06124 163.202 7.61 161.44 7.61V7.86V8.11C163.118 8.11 164.379 8.53876 165.259 9.3625L165.43 9.18ZM161.44 7.86V7.61C160.465 7.61 159.599 7.90832 158.854 8.50478L159.01 8.7L159.166 8.89522C159.821 8.37168 160.575 8.11 161.44 8.11V7.86ZM159.01 8.7L158.854 8.50478C158.094 9.11244 157.71 9.91441 157.71 10.89H157.96H158.21C158.21 10.0656 158.526 9.40755 159.166 8.89522L159.01 8.7ZM157.96 10.89H157.71C157.71 11.7652 157.979 12.5082 158.527 13.0999L158.71 12.93L158.893 12.7601C158.441 12.2718 158.21 11.6548 158.21 10.89H157.96ZM158.71 12.93L158.53 13.1034C159.073 13.6675 159.956 14.311 161.161 15.0344L161.29 14.82L161.419 14.6056C160.224 13.889 159.387 13.2725 158.89 12.7566L158.71 12.93ZM161.29 14.82L161.162 15.035L164.852 17.225L164.98 17.01L165.108 16.795L161.418 14.605L161.29 14.82ZM164.98 17.01L164.851 17.2241C166.202 18.0387 167.132 18.7805 167.665 19.4462L167.86 19.29L168.055 19.1338C167.468 18.3995 166.478 17.6213 165.109 16.7959L164.98 17.01ZM167.86 19.29L167.665 19.4462C168.182 20.0933 168.45 20.9247 168.45 21.96H168.7H168.95C168.95 20.8353 168.658 19.8867 168.055 19.1338L167.86 19.29ZM168.7 21.96H168.45C168.45 23.5782 167.914 24.858 166.852 25.8252L167.02 26.01L167.188 26.1948C168.366 25.122 168.95 23.7018 168.95 21.96H168.7ZM167.02 26.01L166.853 25.8235C165.791 26.7722 164.336 27.26 162.46 27.26V27.51V27.76C164.424 27.76 166.009 27.2478 167.187 26.1965L167.02 26.01ZM181.676 8.4H181.926V8.15H181.676V8.4ZM175.226 11.85V12.1H175.476V11.85H175.226ZM174.626 11.85H174.376V12.1H174.626V11.85ZM191.126 7.2H191.376V6.95H191.126V7.2ZM191.126 8.4V8.65H191.376V8.4H191.126ZM184.376 8.4V8.15H184.126V8.4H184.376ZM184.376 27V27.25H184.626V27H184.376ZM181.676 27H181.426V27.25H181.676V27ZM181.676 8.4V8.15H178.976V8.4V8.65H181.676V8.4ZM178.976 8.4V8.15C177.692 8.15 176.683 8.44479 175.994 9.07852C175.302 9.71587 174.976 10.6559 174.976 11.85H175.226H175.476C175.476 10.7441 175.776 9.95913 176.333 9.44648C176.894 8.93021 177.76 8.65 178.976 8.65V8.4ZM175.226 11.85V11.6H174.626V11.85V12.1H175.226V11.85ZM174.626 11.85H174.876V9.6H174.626H174.376V11.85H174.626ZM174.626 9.6H174.876C174.876 8.84254 175.077 8.31934 175.435 7.98205C175.796 7.64208 176.361 7.45 177.176 7.45V7.2V6.95C176.291 6.95 175.581 7.15792 175.092 7.61795C174.601 8.08066 174.376 8.75746 174.376 9.6H174.626ZM177.176 7.2V7.45H191.126V7.2V6.95H177.176V7.2ZM191.126 7.2H190.876V8.4H191.126H191.376V7.2H191.126ZM191.126 8.4V8.15H184.376V8.4V8.65H191.126V8.4ZM184.376 8.4H184.126V27H184.376H184.626V8.4H184.376ZM184.376 27V26.75H181.676V27V27.25H184.376V27ZM181.676 27H181.926V8.4H181.676H181.426V27H181.676ZM200.016 26.22L199.879 26.4289L199.88 26.4298L200.016 26.22ZM196.776 22.44L197.002 22.3327L196.776 22.44ZM200.016 7.98L199.88 7.77018L199.879 7.77107L200.016 7.98ZM209.826 7.98L209.689 8.18893L209.69 8.18981L209.826 7.98ZM213.096 22.44L212.87 22.3327L213.096 22.44ZM209.826 26.22L209.69 26.0102L209.689 26.0111L209.826 26.22ZM208.296 25.26L208.141 25.064L208.139 25.0656L208.296 25.26ZM210.486 22.05L210.721 22.1352L210.721 22.1341L210.486 22.05ZM210.486 12.18L210.25 12.2641L210.251 12.2652L210.486 12.18ZM208.296 8.94L208.139 9.13442L208.141 9.13601L208.296 8.94ZM201.546 8.94L201.391 8.74398L201.389 8.74559L201.546 8.94ZM199.386 12.18L199.621 12.2652L199.621 12.2641L199.386 12.18ZM199.386 22.05L199.15 22.1341L199.151 22.1352L199.386 22.05ZM201.546 25.26L201.389 25.4544L201.391 25.456L201.546 25.26ZM204.936 27.6V27.35C203.119 27.35 201.527 26.9014 200.152 26.0102L200.016 26.22L199.88 26.4298C201.344 27.3786 203.033 27.85 204.936 27.85V27.6ZM200.016 26.22L200.153 26.0111C198.794 25.1177 197.743 23.8939 197.002 22.3327L196.776 22.44L196.55 22.5473C197.329 24.1861 198.438 25.4823 199.879 26.4289L200.016 26.22ZM196.776 22.44L197.002 22.3327C196.259 20.7697 195.886 19.0269 195.886 17.1H195.636H195.386C195.386 19.0931 195.772 20.9103 196.55 22.5473L196.776 22.44ZM195.636 17.1H195.886C195.886 15.1731 196.259 13.4303 197.002 11.8673L196.776 11.76L196.55 11.6527C195.772 13.2897 195.386 15.1069 195.386 17.1H195.636ZM196.776 11.76L197.002 11.8673C197.743 10.3061 198.794 9.08232 200.153 8.18893L200.016 7.98L199.879 7.77107C198.438 8.71768 197.329 10.0139 196.55 11.6527L196.776 11.76ZM200.016 7.98L200.152 8.18981C201.527 7.29862 203.119 6.85 204.936 6.85V6.6V6.35C203.033 6.35 201.344 6.82138 199.88 7.77019L200.016 7.98ZM204.936 6.6V6.85C206.753 6.85 208.334 7.29863 209.689 8.18893L209.826 7.98L209.963 7.77107C208.518 6.82137 206.839 6.35 204.936 6.35V6.6ZM209.826 7.98L209.69 8.18981C211.069 9.08341 212.129 10.3071 212.87 11.8673L213.096 11.76L213.322 11.6527C212.543 10.0129 211.423 8.71659 209.962 7.77019L209.826 7.98ZM213.096 11.76L212.87 11.8673C213.612 13.4303 213.986 15.1731 213.986 17.1H214.236H214.486C214.486 15.1069 214.099 13.2897 213.322 11.6527L213.096 11.76ZM214.236 17.1H213.986C213.986 19.0269 213.612 20.7697 212.87 22.3327L213.096 22.44L213.322 22.5473C214.099 20.9103 214.486 19.0931 214.486 17.1H214.236ZM213.096 22.44L212.87 22.3327C212.129 23.8929 211.069 25.1166 209.69 26.0102L209.826 26.22L209.962 26.4298C211.423 25.4834 212.543 24.1871 213.322 22.5473L213.096 22.44ZM209.826 26.22L209.689 26.0111C208.334 26.9014 206.753 27.35 204.936 27.35V27.6V27.85C206.839 27.85 208.518 27.3786 209.963 26.4289L209.826 26.22ZM204.936 26.4V26.65C206.288 26.65 207.465 26.2532 208.453 25.4544L208.296 25.26L208.139 25.0656C207.247 25.7868 206.183 26.15 204.936 26.15V26.4ZM208.296 25.26L208.451 25.456C209.454 24.6619 210.208 23.5501 210.721 22.1352L210.486 22.05L210.251 21.9648C209.763 23.3099 209.058 24.3381 208.141 25.064L208.296 25.26ZM210.486 22.05L210.721 22.1341C211.233 20.7008 211.486 19.0211 211.486 17.1H211.236H210.986C210.986 18.9789 210.739 20.5992 210.25 21.9659L210.486 22.05ZM211.236 17.1H211.486C211.486 15.1791 211.233 13.5088 210.721 12.0948L210.486 12.18L210.251 12.2652C210.738 13.6112 210.986 15.2209 210.986 17.1H211.236ZM210.486 12.18L210.721 12.0959C210.209 10.6613 209.455 9.53872 208.451 8.74399L208.296 8.94L208.141 9.13601C209.057 9.86128 209.763 10.8987 210.25 12.2641L210.486 12.18ZM208.296 8.94L208.453 8.74559C207.465 7.94682 206.288 7.55 204.936 7.55V7.8V8.05C206.183 8.05 207.247 8.41318 208.139 9.13441L208.296 8.94ZM204.936 7.8V7.55C203.583 7.55 202.398 7.94677 201.391 8.74399L201.546 8.94L201.701 9.13601C202.614 8.41322 203.688 8.05 204.936 8.05V7.8ZM201.546 8.94L201.389 8.74559C200.406 9.54045 199.662 10.6626 199.15 12.0959L199.386 12.18L199.621 12.2641C200.109 10.8974 200.806 9.85954 201.703 9.13441L201.546 8.94ZM199.386 12.18L199.151 12.0948C198.638 13.5088 198.386 15.1791 198.386 17.1H198.636H198.886C198.886 15.2209 199.133 13.6111 199.621 12.2652L199.386 12.18ZM198.636 17.1H198.386C198.386 19.0211 198.639 20.7008 199.15 22.1341L199.386 22.05L199.621 21.9659C199.133 20.5992 198.886 18.9789 198.886 17.1H198.636ZM199.386 22.05L199.151 22.1352C199.663 23.5488 200.406 24.6602 201.389 25.4544L201.546 25.26L201.703 25.0656C200.805 24.3398 200.109 23.3112 199.621 21.9648L199.386 22.05ZM201.546 25.26L201.391 25.456C202.398 26.2532 203.583 26.65 204.936 26.65V26.4V26.15C203.688 26.15 202.614 25.7868 201.701 25.064L201.546 25.26ZM232.998 26.37L232.84 26.5633L232.845 26.5676L232.998 26.37ZM230.388 22.95L230.604 22.8237L230.604 22.8232L230.388 22.95ZM227.388 17.85L227.604 17.7232L227.531 17.6H227.388V17.85ZM225.288 17.85V17.6H225.038V17.85H225.288ZM225.288 27V27.25H225.538V27H225.288ZM222.588 27H222.338V27.25H222.588V27ZM222.168 8.55L221.95 8.67217L221.952 8.67597L222.168 8.55ZM219.888 7.8H219.638V8.05H219.888V7.8ZM219.888 7.2V6.95H219.638V7.2H219.888ZM232.848 8.34L232.738 8.56421L232.741 8.56587L232.848 8.34ZM230.388 17.7L230.332 17.4564L229.997 17.5339L230.174 17.8286L230.388 17.7ZM233.538 22.95L233.753 22.8219L233.753 22.8214L233.538 22.95ZM235.518 25.56L235.355 25.7495L235.362 25.7552L235.518 25.56ZM237.588 26.4H237.838V26.1743L237.614 26.1513L237.588 26.4ZM237.588 27L237.69 27.2285L237.838 27.1625V27H237.588ZM236.808 27.21L236.765 26.9638L236.762 26.9643L236.808 27.21ZM229.548 16.35L229.454 16.1183L229.452 16.1192L229.548 16.35ZM231.408 14.94L231.214 14.7823L231.211 14.7861L231.408 14.94ZM231.408 10.17L231.209 10.321L231.214 10.3276L231.408 10.17ZM229.548 8.73L229.447 8.95858L229.454 8.96168L229.548 8.73ZM225.288 8.55L225.228 8.30746L225.038 8.35481V8.55H225.288ZM225.288 16.5H225.038V16.6952L225.228 16.7425L225.288 16.5ZM235.788 27.3V27.05C234.781 27.05 233.905 26.7567 233.151 26.1724L232.998 26.37L232.845 26.5676C233.691 27.2233 234.676 27.55 235.788 27.55V27.3ZM232.998 26.37L233.157 26.1767C232.412 25.5655 231.56 24.4566 230.604 22.8237L230.388 22.95L230.172 23.0763C231.137 24.7234 232.025 25.8945 232.84 26.5633L232.998 26.37ZM230.388 22.95L230.604 22.8232L227.604 17.7232L227.388 17.85L227.173 17.9768L230.173 23.0768L230.388 22.95ZM227.388 17.85V17.6H225.288V17.85V18.1H227.388V17.85ZM225.288 17.85H225.038V27H225.288H225.538V17.85H225.288ZM225.288 27V26.75H222.588V27V27.25H225.288V27ZM222.588 27H222.838V10.8H222.588H222.338V27H222.588ZM222.588 10.8H222.838C222.838 9.76719 222.698 8.96247 222.384 8.42403L222.168 8.55L221.952 8.67597C222.198 9.09753 222.338 9.79281 222.338 10.8H222.588ZM222.168 8.55L222.386 8.42785C222.043 7.81529 221.372 7.55 220.488 7.55V7.8V8.05C221.284 8.05 221.733 8.28471 221.95 8.67215L222.168 8.55ZM220.488 7.8V7.55H219.888V7.8V8.05H220.488V7.8ZM219.888 7.8H220.138V7.2H219.888H219.638V7.8H219.888ZM219.888 7.2V7.45H227.688V7.2V6.95H219.888V7.2ZM227.688 7.2V7.45C229.554 7.45 231.236 7.82291 232.738 8.56419L232.848 8.34L232.959 8.11581C231.381 7.33709 229.622 6.95 227.688 6.95V7.2ZM232.848 8.34L232.741 8.56587C233.477 8.91492 234.021 9.41954 234.384 10.0804C234.749 10.7441 234.938 11.58 234.938 12.6H235.188H235.438C235.438 11.52 235.238 10.5959 234.822 9.83964C234.405 9.08046 233.78 8.50508 232.955 8.11412L232.848 8.34ZM235.188 12.6H234.938C234.938 13.8759 234.556 14.9016 233.806 15.6987C233.051 16.5008 231.903 17.0932 230.332 17.4564L230.388 17.7L230.445 17.9436C232.074 17.5668 233.325 16.9392 234.17 16.0413C235.02 15.1384 235.438 13.9841 235.438 12.6H235.188ZM230.388 17.7L230.174 17.8286L233.324 23.0786L233.538 22.95L233.753 22.8214L230.603 17.5714L230.388 17.7ZM233.538 22.95L233.324 23.0781C234.067 24.3245 234.744 25.2226 235.355 25.7494L235.518 25.56L235.681 25.3706C235.133 24.8974 234.489 24.0555 233.753 22.8219L233.538 22.95ZM235.518 25.56L235.362 25.7552C236 26.2659 236.736 26.5639 237.563 26.6487L237.588 26.4L237.614 26.1513C236.88 26.0761 236.236 25.8141 235.674 25.3648L235.518 25.56ZM237.588 26.4H237.338V27H237.588H237.838V26.4H237.588ZM237.588 27L237.487 26.7715C237.334 26.8394 237.097 26.9051 236.765 26.9638L236.808 27.21L236.852 27.4562C237.199 27.3949 237.482 27.3206 237.69 27.2285L237.588 27ZM236.808 27.21L236.762 26.9643C236.459 27.0212 236.134 27.05 235.788 27.05V27.3V27.55C236.162 27.55 236.518 27.5188 236.854 27.4557L236.808 27.21ZM227.538 16.8V17.05C228.199 17.05 228.901 16.8903 229.644 16.5808L229.548 16.35L229.452 16.1192C228.755 16.4097 228.118 16.55 227.538 16.55V16.8ZM229.548 16.35L229.642 16.5817C230.423 16.2649 231.079 15.7678 231.605 15.0939L231.408 14.94L231.211 14.7861C230.738 15.3922 230.153 15.8351 229.454 16.1183L229.548 16.35ZM231.408 14.94L231.602 15.0976C232.163 14.4079 232.438 13.5704 232.438 12.6H232.188H231.938C231.938 13.4696 231.694 14.1921 231.214 14.7824L231.408 14.94ZM232.188 12.6H232.438C232.438 11.5739 232.165 10.7049 231.602 10.0124L231.408 10.17L231.214 10.3276C231.691 10.9151 231.938 11.6661 231.938 12.6H232.188ZM231.408 10.17L231.607 10.019C231.081 9.32452 230.425 8.81588 229.642 8.49831L229.548 8.73L229.454 8.96168C230.151 9.24412 230.735 9.69548 231.209 10.321L231.408 10.17ZM229.548 8.73L229.65 8.50155C228.906 8.17105 228.201 8 227.538 8V8.25V8.5C228.115 8.5 228.75 8.64895 229.447 8.95845L229.548 8.73ZM227.538 8.25V8C226.815 8 226.044 8.10336 225.228 8.30746L225.288 8.55L225.349 8.79254C226.132 8.59664 226.862 8.5 227.538 8.5V8.25ZM225.288 8.55H225.038V16.5H225.288H225.538V8.55H225.288ZM225.288 16.5L225.228 16.7425C226.044 16.9466 226.815 17.05 227.538 17.05V16.8V16.55C226.862 16.55 226.132 16.4534 225.349 16.2575L225.288 16.5ZM244.01 8.55L243.792 8.67217L243.794 8.67597L244.01 8.55ZM241.73 7.8H241.48V8.05H241.73V7.8ZM241.73 7.2V6.95H241.48V7.2H241.73ZM257.06 11.85V12.1H257.31V11.85H257.06ZM256.46 11.85H256.21V12.1H256.46V11.85ZM247.13 8.4V8.15H246.88V8.4H247.13ZM247.13 16.2H246.88V16.45H247.13V16.2ZM255.23 16.2H255.48V15.95H255.23V16.2ZM255.23 17.4V17.65H255.48V17.4H255.23ZM247.13 17.4V17.15H246.88V17.4H247.13ZM247.13 25.8H246.88V26.05H247.13V25.8ZM255.62 25.05L255.755 25.2605L255.62 25.05ZM257.48 22.5L257.541 22.2575L257.326 22.2038L257.247 22.4105L257.48 22.5ZM258.08 22.65L258.315 22.7364L258.411 22.475L258.141 22.4075L258.08 22.65ZM257.03 25.5L256.795 25.4136L256.795 25.4153L257.03 25.5ZM244.43 27H244.18V27.25H244.43V27ZM244.43 10.8H244.68C244.68 9.76719 244.54 8.96247 244.226 8.42403L244.01 8.55L243.794 8.67597C244.04 9.09753 244.18 9.79281 244.18 10.8H244.43ZM244.01 8.55L244.228 8.42785C243.885 7.81529 243.214 7.55 242.33 7.55V7.8V8.05C243.126 8.05 243.575 8.28471 243.792 8.67215L244.01 8.55ZM242.33 7.8V7.55H241.73V7.8V8.05H242.33V7.8ZM241.73 7.8H241.98V7.2H241.73H241.48V7.8H241.73ZM241.73 7.2V7.45H254.51V7.2V6.95H241.73V7.2ZM254.51 7.2V7.45C255.325 7.45 255.89 7.64208 256.251 7.98205C256.61 8.31934 256.81 8.84254 256.81 9.6H257.06H257.31C257.31 8.75746 257.085 8.08066 256.594 7.61795C256.105 7.15792 255.395 6.95 254.51 6.95V7.2ZM257.06 9.6H256.81V11.85H257.06H257.31V9.6H257.06ZM257.06 11.85V11.6H256.46V11.85V12.1H257.06V11.85ZM256.46 11.85H256.71C256.71 10.6559 256.385 9.71587 255.692 9.07852C255.003 8.44479 253.994 8.15 252.71 8.15V8.4V8.65C253.926 8.65 254.792 8.93021 255.353 9.44648C255.91 9.95913 256.21 10.7441 256.21 11.85H256.46ZM252.71 8.4V8.15H247.13V8.4V8.65H252.71V8.4ZM247.13 8.4H246.88V16.2H247.13H247.38V8.4H247.13ZM247.13 16.2V16.45H255.23V16.2V15.95H247.13V16.2ZM255.23 16.2H254.98V17.4H255.23H255.48V16.2H255.23ZM255.23 17.4V17.15H247.13V17.4V17.65H255.23V17.4ZM247.13 17.4H246.88V25.8H247.13H247.38V17.4H247.13ZM247.13 25.8V26.05H252.38V25.8V25.55H247.13V25.8ZM252.38 25.8V26.05C253.786 26.05 254.919 25.796 255.755 25.2605L255.62 25.05L255.485 24.8395C254.761 25.304 253.734 25.55 252.38 25.55V25.8ZM255.62 25.05L255.755 25.2605C256.594 24.7224 257.242 23.8205 257.713 22.5895L257.48 22.5L257.247 22.4105C256.798 23.5795 256.206 24.3776 255.485 24.8395L255.62 25.05ZM257.48 22.5L257.419 22.7425L258.019 22.8925L258.08 22.65L258.141 22.4075L257.541 22.2575L257.48 22.5ZM258.08 22.65L257.845 22.5636L256.795 25.4136L257.03 25.5L257.265 25.5864L258.315 22.7364L258.08 22.65ZM257.03 25.5L256.795 25.4153C256.63 25.8742 256.382 26.2018 256.059 26.417C255.735 26.6332 255.314 26.75 254.78 26.75V27V27.25C255.386 27.25 255.91 27.1168 256.336 26.833C256.763 26.5482 257.07 26.1258 257.265 25.5847L257.03 25.5ZM254.78 27V26.75H244.43V27V27.25H254.78V27ZM244.43 27H244.68V10.8H244.43H244.18V27H244.43Z" fill="white"/>
</svg>
